<?xml version="1.0" encoding="UTF-8"?>
<svg xmlns="http://www.w3.org/2000/svg" xmlns:xlink="http://www.w3.org/1999/xlink" width="3873" height="3873" viewBox="0 0 3873 3873">
<defs>
<clipPath id="clip-0">
<path clip-rule="evenodd" d="M 1936.5 0 C 3006 0 3873 867 3873 1936.5 C 3873 3006 3006 3873 1936.5 3873 C 867 3873 0 3006 0 1936.5 C 0 867 867 0 1936.5 0 "/>
</clipPath>
<radialGradient id="radial-pattern-0" gradientUnits="userSpaceOnUse" cx="0" cy="0" fx="0" fy="0" r="1549.19" gradientTransform="matrix(1, 0, 0, 1, 1936.5, 1936.5)">
<stop offset="0" stop-color="rgb(33.201599%, 33.201599%, 33.201599%)" stop-opacity="1"/>
<stop offset="0.0078125" stop-color="rgb(32.876587%, 32.876587%, 32.876587%)" stop-opacity="1"/>
<stop offset="0.0195312" stop-color="rgb(32.485962%, 32.485962%, 32.485962%)" stop-opacity="1"/>
<stop offset="0.03125" stop-color="rgb(32.095337%, 32.095337%, 32.095337%)" stop-opacity="1"/>
<stop offset="0.0429688" stop-color="rgb(31.704712%, 31.704712%, 31.704712%)" stop-opacity="1"/>
<stop offset="0.0546875" stop-color="rgb(31.314087%, 31.314087%, 31.314087%)" stop-opacity="1"/>
<stop offset="0.0664062" stop-color="rgb(30.923462%, 30.923462%, 30.923462%)" stop-opacity="1"/>
<stop offset="0.078125" stop-color="rgb(30.532837%, 30.532837%, 30.532837%)" stop-opacity="1"/>
<stop offset="0.0898438" stop-color="rgb(30.142212%, 30.142212%, 30.142212%)" stop-opacity="1"/>
<stop offset="0.101562" stop-color="rgb(29.751587%, 29.751587%, 29.751587%)" stop-opacity="1"/>
<stop offset="0.113281" stop-color="rgb(29.360962%, 29.360962%, 29.360962%)" stop-opacity="1"/>
<stop offset="0.125" stop-color="rgb(28.970337%, 28.970337%, 28.970337%)" stop-opacity="1"/>
<stop offset="0.136719" stop-color="rgb(28.579712%, 28.579712%, 28.579712%)" stop-opacity="1"/>
<stop offset="0.148438" stop-color="rgb(28.189087%, 28.189087%, 28.189087%)" stop-opacity="1"/>
<stop offset="0.160156" stop-color="rgb(27.798462%, 27.798462%, 27.798462%)" stop-opacity="1"/>
<stop offset="0.171875" stop-color="rgb(27.407837%, 27.407837%, 27.407837%)" stop-opacity="1"/>
<stop offset="0.183594" stop-color="rgb(27.017212%, 27.017212%, 27.017212%)" stop-opacity="1"/>
<stop offset="0.195312" stop-color="rgb(26.626587%, 26.626587%, 26.626587%)" stop-opacity="1"/>
<stop offset="0.207031" stop-color="rgb(26.235962%, 26.235962%, 26.235962%)" stop-opacity="1"/>
<stop offset="0.21875" stop-color="rgb(25.845337%, 25.845337%, 25.845337%)" stop-opacity="1"/>
<stop offset="0.230469" stop-color="rgb(25.454712%, 25.454712%, 25.454712%)" stop-opacity="1"/>
<stop offset="0.242188" stop-color="rgb(25.064087%, 25.064087%, 25.064087%)" stop-opacity="1"/>
<stop offset="0.253906" stop-color="rgb(24.737549%, 24.737549%, 24.737549%)" stop-opacity="1"/>
<stop offset="0.261719" stop-color="rgb(24.478149%, 24.478149%, 24.478149%)" stop-opacity="1"/>
<stop offset="0.269531" stop-color="rgb(24.217224%, 24.217224%, 24.217224%)" stop-opacity="1"/>
<stop offset="0.277344" stop-color="rgb(23.956299%, 23.956299%, 23.956299%)" stop-opacity="1"/>
<stop offset="0.285156" stop-color="rgb(23.696899%, 23.696899%, 23.696899%)" stop-opacity="1"/>
<stop offset="0.292969" stop-color="rgb(23.435974%, 23.435974%, 23.435974%)" stop-opacity="1"/>
<stop offset="0.300781" stop-color="rgb(23.175049%, 23.175049%, 23.175049%)" stop-opacity="1"/>
<stop offset="0.308594" stop-color="rgb(22.915649%, 22.915649%, 22.915649%)" stop-opacity="1"/>
<stop offset="0.316406" stop-color="rgb(22.654724%, 22.654724%, 22.654724%)" stop-opacity="1"/>
<stop offset="0.324219" stop-color="rgb(22.393799%, 22.393799%, 22.393799%)" stop-opacity="1"/>
<stop offset="0.332031" stop-color="rgb(22.134399%, 22.134399%, 22.134399%)" stop-opacity="1"/>
<stop offset="0.339844" stop-color="rgb(21.873474%, 21.873474%, 21.873474%)" stop-opacity="1"/>
<stop offset="0.347656" stop-color="rgb(21.612549%, 21.612549%, 21.612549%)" stop-opacity="1"/>
<stop offset="0.355469" stop-color="rgb(21.353149%, 21.353149%, 21.353149%)" stop-opacity="1"/>
<stop offset="0.363281" stop-color="rgb(21.092224%, 21.092224%, 21.092224%)" stop-opacity="1"/>
<stop offset="0.371094" stop-color="rgb(20.831299%, 20.831299%, 20.831299%)" stop-opacity="1"/>
<stop offset="0.378906" stop-color="rgb(20.571899%, 20.571899%, 20.571899%)" stop-opacity="1"/>
<stop offset="0.386719" stop-color="rgb(20.310974%, 20.310974%, 20.310974%)" stop-opacity="1"/>
<stop offset="0.394531" stop-color="rgb(20.050049%, 20.050049%, 20.050049%)" stop-opacity="1"/>
<stop offset="0.402344" stop-color="rgb(19.790649%, 19.790649%, 19.790649%)" stop-opacity="1"/>
<stop offset="0.410156" stop-color="rgb(19.529724%, 19.529724%, 19.529724%)" stop-opacity="1"/>
<stop offset="0.417969" stop-color="rgb(19.268799%, 19.268799%, 19.268799%)" stop-opacity="1"/>
<stop offset="0.425781" stop-color="rgb(19.009399%, 19.009399%, 19.009399%)" stop-opacity="1"/>
<stop offset="0.433594" stop-color="rgb(18.748474%, 18.748474%, 18.748474%)" stop-opacity="1"/>
<stop offset="0.441406" stop-color="rgb(18.487549%, 18.487549%, 18.487549%)" stop-opacity="1"/>
<stop offset="0.449219" stop-color="rgb(18.228149%, 18.228149%, 18.228149%)" stop-opacity="1"/>
<stop offset="0.457031" stop-color="rgb(17.967224%, 17.967224%, 17.967224%)" stop-opacity="1"/>
<stop offset="0.464844" stop-color="rgb(17.706299%, 17.706299%, 17.706299%)" stop-opacity="1"/>
<stop offset="0.472656" stop-color="rgb(17.446899%, 17.446899%, 17.446899%)" stop-opacity="1"/>
<stop offset="0.480469" stop-color="rgb(17.185974%, 17.185974%, 17.185974%)" stop-opacity="1"/>
<stop offset="0.488281" stop-color="rgb(16.925049%, 16.925049%, 16.925049%)" stop-opacity="1"/>
<stop offset="0.496094" stop-color="rgb(16.665649%, 16.665649%, 16.665649%)" stop-opacity="1"/>
<stop offset="0.503906" stop-color="rgb(16.340637%, 16.340637%, 16.340637%)" stop-opacity="1"/>
<stop offset="0.515625" stop-color="rgb(15.950012%, 15.950012%, 15.950012%)" stop-opacity="1"/>
<stop offset="0.527344" stop-color="rgb(15.559387%, 15.559387%, 15.559387%)" stop-opacity="1"/>
<stop offset="0.539062" stop-color="rgb(15.168762%, 15.168762%, 15.168762%)" stop-opacity="1"/>
<stop offset="0.550781" stop-color="rgb(14.778137%, 14.778137%, 14.778137%)" stop-opacity="1"/>
<stop offset="0.5625" stop-color="rgb(14.387512%, 14.387512%, 14.387512%)" stop-opacity="1"/>
<stop offset="0.574219" stop-color="rgb(13.996887%, 13.996887%, 13.996887%)" stop-opacity="1"/>
<stop offset="0.585938" stop-color="rgb(13.606262%, 13.606262%, 13.606262%)" stop-opacity="1"/>
<stop offset="0.597656" stop-color="rgb(13.215637%, 13.215637%, 13.215637%)" stop-opacity="1"/>
<stop offset="0.609375" stop-color="rgb(12.825012%, 12.825012%, 12.825012%)" stop-opacity="1"/>
<stop offset="0.621094" stop-color="rgb(12.434387%, 12.434387%, 12.434387%)" stop-opacity="1"/>
<stop offset="0.632812" stop-color="rgb(12.107849%, 12.107849%, 12.107849%)" stop-opacity="1"/>
<stop offset="0.640625" stop-color="rgb(11.846924%, 11.846924%, 11.846924%)" stop-opacity="1"/>
<stop offset="0.648438" stop-color="rgb(11.587524%, 11.587524%, 11.587524%)" stop-opacity="1"/>
<stop offset="0.65625" stop-color="rgb(11.326599%, 11.326599%, 11.326599%)" stop-opacity="1"/>
<stop offset="0.664062" stop-color="rgb(11.065674%, 11.065674%, 11.065674%)" stop-opacity="1"/>
<stop offset="0.671875" stop-color="rgb(10.806274%, 10.806274%, 10.806274%)" stop-opacity="1"/>
<stop offset="0.679688" stop-color="rgb(10.545349%, 10.545349%, 10.545349%)" stop-opacity="1"/>
<stop offset="0.6875" stop-color="rgb(10.284424%, 10.284424%, 10.284424%)" stop-opacity="1"/>
<stop offset="0.695312" stop-color="rgb(10.025024%, 10.025024%, 10.025024%)" stop-opacity="1"/>
<stop offset="0.703125" stop-color="rgb(9.764099%, 9.764099%, 9.764099%)" stop-opacity="1"/>
<stop offset="0.710938" stop-color="rgb(9.503174%, 9.503174%, 9.503174%)" stop-opacity="1"/>
<stop offset="0.71875" stop-color="rgb(9.243774%, 9.243774%, 9.243774%)" stop-opacity="1"/>
<stop offset="0.726562" stop-color="rgb(8.982849%, 8.982849%, 8.982849%)" stop-opacity="1"/>
<stop offset="0.734375" stop-color="rgb(8.721924%, 8.721924%, 8.721924%)" stop-opacity="1"/>
<stop offset="0.742188" stop-color="rgb(8.462524%, 8.462524%, 8.462524%)" stop-opacity="1"/>
<stop offset="0.75" stop-color="rgb(8.201599%, 8.201599%, 8.201599%)" stop-opacity="1"/>
<stop offset="0.757812" stop-color="rgb(7.876587%, 7.876587%, 7.876587%)" stop-opacity="1"/>
<stop offset="0.769531" stop-color="rgb(7.485962%, 7.485962%, 7.485962%)" stop-opacity="1"/>
<stop offset="0.78125" stop-color="rgb(7.095337%, 7.095337%, 7.095337%)" stop-opacity="1"/>
<stop offset="0.792969" stop-color="rgb(6.704712%, 6.704712%, 6.704712%)" stop-opacity="1"/>
<stop offset="0.804688" stop-color="rgb(6.314087%, 6.314087%, 6.314087%)" stop-opacity="1"/>
<stop offset="0.816406" stop-color="rgb(5.987549%, 5.987549%, 5.987549%)" stop-opacity="1"/>
<stop offset="0.824219" stop-color="rgb(5.728149%, 5.728149%, 5.728149%)" stop-opacity="1"/>
<stop offset="0.832031" stop-color="rgb(5.467224%, 5.467224%, 5.467224%)" stop-opacity="1"/>
<stop offset="0.839844" stop-color="rgb(5.206299%, 5.206299%, 5.206299%)" stop-opacity="1"/>
<stop offset="0.847656" stop-color="rgb(4.946899%, 4.946899%, 4.946899%)" stop-opacity="1"/>
<stop offset="0.855469" stop-color="rgb(4.685974%, 4.685974%, 4.685974%)" stop-opacity="1"/>
<stop offset="0.863281" stop-color="rgb(4.425049%, 4.425049%, 4.425049%)" stop-opacity="1"/>
<stop offset="0.871094" stop-color="rgb(4.165649%, 4.165649%, 4.165649%)" stop-opacity="1"/>
<stop offset="0.878906" stop-color="rgb(3.840637%, 3.840637%, 3.840637%)" stop-opacity="1"/>
<stop offset="0.890625" stop-color="rgb(3.450012%, 3.450012%, 3.450012%)" stop-opacity="1"/>
<stop offset="0.902344" stop-color="rgb(3.059387%, 3.059387%, 3.059387%)" stop-opacity="1"/>
<stop offset="0.914062" stop-color="rgb(2.732849%, 2.732849%, 2.732849%)" stop-opacity="1"/>
<stop offset="0.921875" stop-color="rgb(2.471924%, 2.471924%, 2.471924%)" stop-opacity="1"/>
<stop offset="0.929688" stop-color="rgb(2.212524%, 2.212524%, 2.212524%)" stop-opacity="1"/>
<stop offset="0.9375" stop-color="rgb(1.951599%, 1.951599%, 1.951599%)" stop-opacity="1"/>
<stop offset="0.945312" stop-color="rgb(1.626587%, 1.626587%, 1.626587%)" stop-opacity="1"/>
<stop offset="0.957031" stop-color="rgb(1.300049%, 1.300049%, 1.300049%)" stop-opacity="1"/>
<stop offset="0.964844" stop-color="rgb(1.040649%, 1.040649%, 1.040649%)" stop-opacity="1"/>
<stop offset="0.972656" stop-color="rgb(0.715637%, 0.715637%, 0.715637%)" stop-opacity="1"/>
<stop offset="0.984375" stop-color="rgb(0.389099%, 0.389099%, 0.389099%)" stop-opacity="1"/>
<stop offset="0.992188" stop-color="rgb(0.1297%, 0.1297%, 0.1297%)" stop-opacity="1"/>
<stop offset="1" stop-color="rgb(0%, 0%, 0%)" stop-opacity="1"/>
</radialGradient>
</defs>
<g clip-path="url(#clip-0)">
<rect x="-387.3" y="-387.3" width="4647.6" height="4647.6" fill="url(#radial-pattern-0)"/>
</g>
<path fill-rule="evenodd" fill="rgb(100%, 100%, 99.609375%)" fill-opacity="1" d="M 2348.101562 1556.199219 L 1525 1556.199219 L 1936.601562 1749.398438 Z M 2452.699219 1991.699219 L 2452.699219 1573.5 L 2007.199219 1782.601562 Z M 1865.898438 1782.5 L 1420.300781 1573.398438 L 1420.300781 1991.699219 Z M 1524.898438 2008.898438 L 2348.101562 2008.898438 L 1936.5 1815.699219 Z M 2482.699219 2069 L 1389.699219 2069 C 1373.398438 2068.699219 1360.199219 2055.398438 1360.199219 2039 L 1360.199219 1526.199219 C 1360.199219 1511.300781 1371.101562 1498.898438 1385.300781 1496.601562 L 1385.601562 1496.5 C 1387.398438 1496.199219 1389.300781 1496.101562 1391.199219 1496.199219 L 2481.699219 1496.199219 C 2493.300781 1495.800781 2504.601562 1502.300781 2509.898438 1513.5 C 2512.101562 1518.199219 2513 1523.199219 2512.699219 1528.101562 L 2512.699219 2037.199219 C 2513 2042.101562 2512.101562 2047.101562 2509.898438 2051.800781 C 2507.800781 2056.199219 2504.800781 2059.800781 2501.199219 2062.699219 L 2501.101562 2062.699219 L 2500.699219 2063 C 2496.199219 2066.398438 2490.699219 2068.5 2484.800781 2068.898438 L 2483.398438 2068.898438 Z M 1802.398438 2207.199219 L 1459.601562 2207.199219 L 1631 2389.699219 Z M 1841.800781 2614.101562 L 1841.800781 2253 L 1672.199219 2433.601562 Z M 1589.898438 2433.5 L 1420.300781 2253 L 1420.300781 2614.101562 Z M 1459.699219 2659.898438 L 1802.5 2659.898438 L 1631.101562 2477.398438 Z M 1871.800781 2720 L 1387.300781 2720 C 1380.601562 2719.398438 1374.5 2716.5 1369.898438 2712.199219 L 1369.601562 2712 L 1369.5 2711.898438 L 1369.199219 2711.601562 L 1368.898438 2711.300781 L 1368.800781 2711.199219 C 1362.898438 2705.300781 1360 2697.398438 1360.101562 2689.5 L 1360.101562 2177.699219 C 1360.101562 2175.800781 1360.199219 2173.800781 1360.601562 2171.898438 L 1360.601562 2171.800781 C 1360.699219 2171.300781 1360.800781 2170.898438 1360.898438 2170.398438 L 1361.101562 2169.699219 C 1361.300781 2169 1361.5 2168.300781 1361.699219 2167.601562 C 1363.101562 2163.398438 1365.5 2159.5 1368.800781 2156.199219 L 1369.699219 2155.300781 C 1370 2155 1370.398438 2154.699219 1370.800781 2154.398438 L 1371.300781 2154 L 1371.398438 2153.898438 L 1372.398438 2153.101562 L 1372.5 2153 L 1372.898438 2152.699219 L 1373.101562 2152.601562 L 1373.5 2152.300781 L 1373.699219 2152.199219 L 1374.300781 2151.898438 L 1374.398438 2151.898438 L 1374.898438 2151.601562 L 1375 2151.5 C 1375.398438 2151.300781 1375.800781 2151.101562 1376.199219 2150.800781 L 1376.300781 2150.699219 L 1376.800781 2150.398438 L 1377 2150.300781 L 1377.5 2150.101562 L 1377.699219 2150 L 1378.199219 2149.800781 L 1378.300781 2149.699219 C 1378.699219 2149.5 1379.199219 2149.300781 1379.601562 2149.199219 C 1380.199219 2149 1380.898438 2148.800781 1381.601562 2148.601562 L 1381.699219 2148.601562 L 1382.199219 2148.5 L 1382.398438 2148.5 L 1383 2148.398438 L 1383.101562 2148.398438 L 1383.601562 2148.300781 L 1383.898438 2148.199219 L 1384.199219 2148.101562 L 1384.601562 2148 L 1384.898438 2147.898438 L 1385.300781 2147.800781 L 1385.5 2147.800781 C 1387.101562 2147.601562 1388.699219 2147.5 1390.398438 2147.5 L 1871.101562 2147.5 C 1872.5 2147.5 1873.898438 2147.601562 1875.300781 2147.699219 L 1875.398438 2147.699219 L 1875.898438 2147.800781 L 1876.199219 2147.800781 L 1876.601562 2147.898438 L 1877 2148 L 1877.300781 2148.101562 L 1877.699219 2148.199219 L 1878 2148.300781 L 1878.398438 2148.398438 L 1878.601562 2148.5 L 1879.101562 2148.601562 L 1879.300781 2148.699219 C 1879.699219 2148.800781 1880.101562 2148.898438 1880.5 2149.101562 C 1881.699219 2149.5 1882.800781 2149.898438 1883.898438 2150.398438 L 1884.5 2150.699219 L 1884.699219 2150.800781 L 1885.199219 2151 L 1885.800781 2151.300781 L 1885.898438 2151.300781 L 1886.5 2151.601562 L 1886.601562 2151.601562 L 1887.101562 2151.898438 L 1887.300781 2152 L 1887.699219 2152.300781 L 1888.601562 2152.898438 L 1888.898438 2153.101562 L 1889.101562 2153.300781 L 1889.5 2153.601562 L 1889.601562 2153.699219 L 1890 2154 L 1890.199219 2154.101562 L 1890.601562 2154.398438 L 1890.699219 2154.5 L 1891.199219 2154.898438 L 1891.800781 2155.5 L 1891.898438 2155.601562 L 1892.199219 2155.898438 L 1892.601562 2156.300781 C 1895.898438 2159.601562 1898.300781 2163.601562 1899.699219 2167.800781 C 1899.898438 2168.5 1900.101562 2169.199219 1900.300781 2169.898438 C 1900.398438 2170.101562 1900.398438 2170.398438 1900.5 2170.601562 C 1900.601562 2171.101562 1900.699219 2171.5 1900.800781 2172 L 1900.800781 2172.101562 C 1901.101562 2173.898438 1901.300781 2175.800781 1901.300781 2177.699219 L 1901.300781 2689.699219 C 1901.398438 2697.5 1898.5 2705.398438 1892.601562 2711.398438 L 1891.800781 2712.199219 L 1891.398438 2712.5 C 1885.898438 2717.5 1878.898438 2720.101562 1872 2720.300781 Z M 2413.300781 2207.199219 L 2070.5 2207.199219 L 2241.898438 2389.699219 Z M 2452.699219 2614.101562 L 2452.699219 2253 L 2283.101562 2433.5 Z M 2200.699219 2433.601562 L 2031.199219 2253 L 2031.199219 2614.101562 Z M 2070.5 2659.898438 L 2413.300781 2659.898438 L 2241.898438 2477.398438 Z M 2482.699219 2720 L 1998.300781 2720 C 1991.601562 2719.398438 1985.5 2716.5 1980.898438 2712.199219 L 1980.601562 2712 L 1980.5 2711.898438 L 1980.199219 2711.601562 L 1979.898438 2711.300781 L 1979.800781 2711.199219 C 1973.898438 2705.300781 1971 2697.398438 1971.101562 2689.5 L 1971.101562 2177.699219 C 1971 2169.800781 1973.898438 2162 1979.800781 2156 L 1979.898438 2155.898438 L 1980.199219 2155.601562 L 1981.199219 2154.601562 L 1981.699219 2154.199219 L 1981.800781 2154.101562 L 1982.199219 2153.800781 L 1982.398438 2153.699219 L 1982.800781 2153.398438 L 1982.898438 2153.300781 L 1983.300781 2153 L 1983.5 2152.800781 L 1983.800781 2152.601562 L 1984.199219 2152.300781 L 1984.398438 2152.199219 L 1984.800781 2152 L 1985.101562 2151.800781 L 1985.398438 2151.601562 L 1985.699219 2151.398438 L 1986.101562 2151.199219 L 1986.199219 2151.101562 L 1986.699219 2150.800781 L 1986.800781 2150.699219 C 1987.898438 2150.101562 1988.898438 2149.601562 1990 2149.199219 C 1990.5 2149 1990.898438 2148.898438 1991.398438 2148.699219 C 1992.300781 2148.398438 1993.300781 2148.101562 1994.199219 2147.898438 C 1996.601562 2147.398438 1999 2147.101562 2001.398438 2147.101562 L 2482.101562 2147.101562 C 2483.5 2147.101562 2484.898438 2147.199219 2486.300781 2147.300781 L 2486.398438 2147.300781 L 2486.898438 2147.398438 L 2487.199219 2147.398438 L 2487.601562 2147.5 L 2488 2147.601562 L 2488.300781 2147.699219 L 2488.699219 2147.800781 L 2489 2147.898438 L 2489.398438 2148 L 2489.601562 2148.101562 L 2490.101562 2148.199219 L 2490.300781 2148.300781 C 2490.699219 2148.398438 2491.101562 2148.5 2491.5 2148.699219 C 2492.699219 2149.101562 2493.800781 2149.5 2494.898438 2150 L 2495.5 2150.300781 L 2495.699219 2150.398438 L 2496.199219 2150.601562 L 2496.800781 2150.898438 L 2496.898438 2150.898438 L 2497.5 2151.199219 L 2497.601562 2151.199219 L 2498.101562 2151.5 L 2498.300781 2151.601562 L 2498.699219 2151.898438 L 2499 2152.101562 L 2499.601562 2152.5 L 2499.898438 2152.699219 L 2500.101562 2152.898438 L 2500.5 2153.199219 L 2500.601562 2153.300781 L 2501 2153.601562 L 2501.199219 2153.699219 L 2501.601562 2154 L 2501.699219 2154.101562 L 2502.199219 2154.5 L 2503.5 2155.800781 L 2503.601562 2155.898438 C 2509.5 2161.800781 2512.398438 2169.699219 2512.300781 2177.601562 L 2512.300781 2689.398438 C 2512.398438 2697.300781 2509.5 2705.101562 2503.601562 2711.101562 L 2503.5 2711.199219 L 2503.199219 2711.5 L 2502.898438 2711.699219 L 2502.800781 2711.800781 C 2498 2716.300781 2492.101562 2718.898438 2486.101562 2719.699219 L 2485.398438 2719.800781 L 2484.699219 2719.898438 L 2483 2719.898438 Z M 2535 2961.199219 L 1338 2961.199219 C 1235.800781 2961.199219 1152.699219 2878.101562 1152.699219 2775.898438 L 1152.699219 1369.898438 C 1162.101562 1373.199219 1172.199219 1375 1182.699219 1375 L 2690.101562 1375 C 2700.601562 1375 2710.699219 1373.199219 2720.101562 1369.898438 L 2720.101562 2776 C 2720.199219 2878.101562 2637.101562 2961.199219 2535 2961.199219 "/>
<path fill-rule="evenodd" fill="rgb(100%, 100%, 99.609375%)" fill-opacity="1" d="M 1419.699219 1084.101562 C 1403.601562 1084.101562 1390.5 1097.199219 1390.5 1113.300781 C 1390.5 1129.398438 1403.601562 1142.5 1419.699219 1142.5 L 1513.601562 1142.5 C 1529.699219 1142.5 1542.800781 1129.398438 1542.800781 1113.300781 C 1542.800781 1097.199219 1529.699219 1084.101562 1513.601562 1084.101562 Z M 1513.699219 1202.601562 L 1419.800781 1202.601562 C 1370.601562 1202.601562 1330.5 1162.601562 1330.5 1113.300781 C 1330.5 1064.101562 1370.5 1024 1419.800781 1024 L 1513.699219 1024 C 1562.898438 1024 1603 1064 1603 1113.300781 C 1603 1162.601562 1562.898438 1202.601562 1513.699219 1202.601562 Z M 1744.5 1084.101562 C 1728.398438 1084.101562 1715.300781 1097.199219 1715.300781 1113.300781 C 1715.300781 1129.398438 1728.398438 1142.5 1744.5 1142.5 L 1838.398438 1142.5 C 1854.5 1142.5 1867.601562 1129.398438 1867.601562 1113.300781 C 1867.601562 1097.199219 1854.5 1084.101562 1838.398438 1084.101562 Z M 1838.5 1202.601562 L 1744.601562 1202.601562 C 1695.398438 1202.601562 1655.300781 1162.601562 1655.300781 1113.300781 C 1655.300781 1064.101562 1695.300781 1024 1744.601562 1024 L 1838.5 1024 C 1887.699219 1024 1927.800781 1064 1927.800781 1113.300781 C 1927.699219 1162.601562 1887.699219 1202.601562 1838.5 1202.601562 Z M 2512.5 1143.398438 L 2140.800781 1143.398438 C 2124.199219 1143.398438 2110.800781 1130 2110.800781 1113.398438 C 2110.800781 1096.800781 2124.199219 1083.398438 2140.800781 1083.398438 L 2512.5 1083.398438 C 2529.101562 1083.398438 2542.5 1096.800781 2542.5 1113.398438 C 2542.5 1130 2529.101562 1143.398438 2512.5 1143.398438 Z M 2690.199219 1315 L 1182.800781 1315 C 1166.199219 1315 1152.800781 1301.601562 1152.800781 1285 L 1152.800781 1097 C 1152.800781 994.800781 1235.898438 911.699219 1338.101562 911.699219 L 2535 911.699219 C 2637.199219 911.699219 2720.300781 994.800781 2720.300781 1097 L 2720.300781 1284.898438 C 2720.199219 1301.5 2706.699219 1315 2690.199219 1315 "/>
</svg>
