<svg xmlns="http://www.w3.org/2000/svg" xmlns:xlink="http://www.w3.org/1999/xlink" version="1.1" width="256" height="256" viewBox="0 0 256 256" xml:space="preserve">
<g style="stroke: none; stroke-width: 0; stroke-dasharray: none; stroke-linecap: butt; stroke-linejoin: miter; stroke-miterlimit: 10; fill: none; fill-rule: nonzero; opacity: 1;" transform="translate(1.4065934065934016 1.4065934065934016) scale(2.81 2.81)">
	<path d="M 68.919 52.186 v 9.025 c 0 2.013 1.632 3.645 3.645 3.645 h 12.791 c 2.013 0 3.645 -1.632 3.645 -3.645 V 28.789 c 0 -2.013 -1.632 -3.645 -3.645 -3.645 H 72.564 c -2.013 0 -3.645 1.632 -3.645 3.645 v 4.796 v 1.383" style="stroke: none; stroke-width: 1; stroke-dasharray: none; stroke-linecap: butt; stroke-linejoin: miter; stroke-miterlimit: 10; fill: rgb(96,156,214); fill-rule: nonzero; opacity: 1;" transform=" matrix(1 0 0 1 0 0) " stroke-linecap="round"/>
	<path d="M 36.947 58.23 H 2.241 C 1.556 58.23 1 58.785 1 59.471 v 0.635 c 0 2.623 2.127 4.75 4.75 4.75 h 48.677 c 2.623 0 4.75 -2.127 4.75 -4.75 v -0.635 c 0 -0.685 -0.556 -1.241 -1.241 -1.241 H 36.947 z" style="stroke: none; stroke-width: 1; stroke-dasharray: none; stroke-linecap: butt; stroke-linejoin: miter; stroke-miterlimit: 10; fill: rgb(218,237,255); fill-rule: nonzero; opacity: 1;" transform=" matrix(1 0 0 1 0 0) " stroke-linecap="round"/>
	<path d="M 56.304 34.687 v -6.505 c 0 -1.677 -1.36 -3.037 -3.037 -3.037 H 6.91 c -1.677 0 -3.037 1.36 -3.037 3.037 v 27.012 c 0 1.677 1.36 3.037 3.037 3.037 h 46.357 c 1.677 0 3.037 -1.36 3.037 -3.037 v -3.136" style="stroke: none; stroke-width: 1; stroke-dasharray: none; stroke-linecap: butt; stroke-linejoin: miter; stroke-miterlimit: 10; fill: rgb(96,156,214); fill-rule: nonzero; opacity: 1;" transform=" matrix(1 0 0 1 0 0) " stroke-linecap="round"/>
	<path d="M 85.355 65.855 H 72.564 c -2.562 0 -4.646 -2.084 -4.646 -4.645 v -9.025 c 0 -0.553 0.447 -1 1 -1 s 1 0.447 1 1 v 9.025 c 0 1.458 1.187 2.645 2.646 2.645 h 12.791 c 1.458 0 2.645 -1.187 2.645 -2.645 V 28.79 c 0 -1.458 -1.187 -2.645 -2.645 -2.645 H 72.564 c -1.459 0 -2.646 1.187 -2.646 2.645 v 6.179 c 0 0.552 -0.447 1 -1 1 s -1 -0.448 -1 -1 V 28.79 c 0 -2.561 2.084 -4.645 4.646 -4.645 h 12.791 c 2.561 0 4.645 2.084 4.645 4.645 v 32.421 C 90 63.771 87.916 65.855 85.355 65.855 z" style="stroke: none; stroke-width: 1; stroke-dasharray: none; stroke-linecap: butt; stroke-linejoin: miter; stroke-miterlimit: 10; fill: rgb(0,0,0); fill-rule: nonzero; opacity: 1;" transform=" matrix(1 0 0 1 0 0) " stroke-linecap="round"/>
	<path d="M 79.791 30.999 h -1.663 c -0.553 0 -1 -0.448 -1 -1 s 0.447 -1 1 -1 h 1.663 c 0.553 0 1 0.448 1 1 S 80.344 30.999 79.791 30.999 z" style="stroke: none; stroke-width: 1; stroke-dasharray: none; stroke-linecap: butt; stroke-linejoin: miter; stroke-miterlimit: 10; fill: rgb(0,0,0); fill-rule: nonzero; opacity: 1;" transform=" matrix(1 0 0 1 0 0) " stroke-linecap="round"/>
	<path d="M 81.34 61.152 h -4.761 c -0.553 0 -1 -0.447 -1 -1 s 0.447 -1 1 -1 h 4.761 c 0.553 0 1 0.447 1 1 S 81.893 61.152 81.34 61.152 z" style="stroke: none; stroke-width: 1; stroke-dasharray: none; stroke-linecap: butt; stroke-linejoin: miter; stroke-miterlimit: 10; fill: rgb(0,0,0); fill-rule: nonzero; opacity: 1;" transform=" matrix(1 0 0 1 0 0) " stroke-linecap="round"/>
	<path d="M 54.428 65.855 H 5.75 c -3.17 0 -5.75 -2.579 -5.75 -5.75 v -0.635 c 0 -1.235 1.005 -2.241 2.241 -2.241 h 55.696 c 1.235 0 2.241 1.006 2.241 2.241 v 0.635 C 60.178 63.276 57.599 65.855 54.428 65.855 z M 2.241 59.229 C 2.108 59.229 2 59.338 2 59.471 v 0.635 c 0 2.067 1.682 3.75 3.75 3.75 h 48.678 c 2.067 0 3.75 -1.683 3.75 -3.75 v -0.635 c 0 -0.133 -0.108 -0.241 -0.241 -0.241 H 2.241 z" style="stroke: none; stroke-width: 1; stroke-dasharray: none; stroke-linecap: butt; stroke-linejoin: miter; stroke-miterlimit: 10; fill: rgb(0,0,0); fill-rule: nonzero; opacity: 1;" transform=" matrix(1 0 0 1 0 0) " stroke-linecap="round"/>
	<path d="M 53.268 59.229 H 6.91 c -2.226 0 -4.037 -1.811 -4.037 -4.036 V 28.181 c 0 -2.226 1.811 -4.037 4.037 -4.037 h 46.357 c 2.226 0 4.036 1.811 4.036 4.037 v 6.505 c 0 0.552 -0.447 1 -1 1 s -1 -0.448 -1 -1 v -6.505 c 0 -1.123 -0.913 -2.037 -2.036 -2.037 H 6.91 c -1.123 0 -2.037 0.914 -2.037 2.037 v 27.012 c 0 1.123 0.914 2.036 2.037 2.036 h 46.357 c 1.123 0 2.036 -0.913 2.036 -2.036 v -3.137 c 0 -0.553 0.447 -1 1 -1 s 1 0.447 1 1 v 3.137 C 57.304 57.419 55.493 59.229 53.268 59.229 z" style="stroke: none; stroke-width: 1; stroke-dasharray: none; stroke-linecap: butt; stroke-linejoin: miter; stroke-miterlimit: 10; fill: rgb(0,0,0); fill-rule: nonzero; opacity: 1;" transform=" matrix(1 0 0 1 0 0) " stroke-linecap="round"/>
	<path d="M 30.781 30.189 h -1.385 c -0.552 0 -1 -0.448 -1 -1 s 0.448 -1 1 -1 h 1.385 c 0.552 0 1 0.448 1 1 S 31.333 30.189 30.781 30.189 z" style="stroke: none; stroke-width: 1; stroke-dasharray: none; stroke-linecap: butt; stroke-linejoin: miter; stroke-miterlimit: 10; fill: rgb(0,0,0); fill-rule: nonzero; opacity: 1;" transform=" matrix(1 0 0 1 0 0) " stroke-linecap="round"/>
	<path d="M 76.036 47.282 H 54.393 c -0.553 0 -1 -0.447 -1 -1 c 0 -0.552 0.447 -1 1 -1 h 21.644 c 0.553 0 1 0.448 1 1 C 77.036 46.835 76.589 47.282 76.036 47.282 z" style="stroke: none; stroke-width: 1; stroke-dasharray: none; stroke-linecap: butt; stroke-linejoin: miter; stroke-miterlimit: 10; fill: rgb(0,0,0); fill-rule: nonzero; opacity: 1;" transform=" matrix(1 0 0 1 0 0) " stroke-linecap="round"/>
	<polygon points="75.1,43.09 80.63,46.28 75.1,49.47 " style="stroke: none; stroke-width: 1; stroke-dasharray: none; stroke-linecap: butt; stroke-linejoin: miter; stroke-miterlimit: 10; fill: rgb(0,0,0); fill-rule: nonzero; opacity: 1;" transform="  matrix(1 0 0 1 0 0) "/>
	<path d="M 71.236 41.873 H 49.593 c -0.553 0 -1 -0.448 -1 -1 s 0.447 -1 1 -1 h 21.644 c 0.553 0 1 0.448 1 1 S 71.789 41.873 71.236 41.873 z" style="stroke: none; stroke-width: 1; stroke-dasharray: none; stroke-linecap: butt; stroke-linejoin: miter; stroke-miterlimit: 10; fill: rgb(0,0,0); fill-rule: nonzero; opacity: 1;" transform=" matrix(1 0 0 1 0 0) " stroke-linecap="round"/>
	<polygon points="50.53,44.06 45,40.87 50.53,37.68 " style="stroke: none; stroke-width: 1; stroke-dasharray: none; stroke-linecap: butt; stroke-linejoin: miter; stroke-miterlimit: 10; fill: rgb(0,0,0); fill-rule: nonzero; opacity: 1;" transform="  matrix(1 0 0 1 0 0) "/>
</g>
</svg>